# xmcd
#
# Track frame offsets: 
#        150
#        16616
#        33493
#        48824
#        74607
#        91860
#        109182
#        132383
#        161222
#        182903
#        201716
#
# Disc length: 2908 seconds
#
# Revision: 0
# Processed by: cddbd v1.5.2PL0 Copyright (c) Steve Scherf et al.
# Submitted via: ExactAudioCopy v0.99pb4
#
DISCID=9b0b5a0b
DTITLE=The Holy Goats - Next Round
DYEAR=2011
DGENRE=Heavy Blues Rock
TTITLE0=Something To Tell You
TTITLE1=Homesick Blues
TTITLE2=The Deeper You Look
TTITLE3=What You Do To Me
TTITLE4=Temptation
TTITLE5=Every Time We Meet
TTITLE6=Look Inside
TTITLE7=Time To Recall
TTITLE8=Marriott Soul
TTITLE9=Within Reason
TTITLE10=Next Round
EXTD=
EXTT0=
EXTT1=
EXTT2=
EXTT3=
EXTT4=
EXTT5=
EXTT6=
EXTT7=
EXTT8=
EXTT9=
EXTT10=
PLAYORDER=
